<svg xmlns="http://www.w3.org/2000/svg" fill-rule="evenodd" stroke-linejoin="round" stroke-miterlimit="2" clip-rule="evenodd" viewBox="0 0 642 758">
  <defs/>
  <g fill-rule="nonzero">
    <path d="M274.659 207.642c-35.513 76.784-78.127 149.646-134.832 227.747 21.191 1.575 54.024 7.967 79.48 15.923 18.434-70.458 38.682-158.355 55.352-243.67M211.159 559.354C246.579 453.181 314.163 165.021 329.125 0c7.2 176.513 35.565 424.634 83.189 579.4-48.247-11.306-136.564-27.295-201.155-20.046M301.691 676.024c-28.469 12.954-38.381-20.467-38.381-33.905 0-13.436 5.119-51.176 50.535-51.176s46.057 42.225 46.057 52.454c.638 34.549-21.746 42.862-21.746 57.567 0 14.723 13.43 14.074 13.43 25.593s-13.43 31.346-26.868 31.346c0 0 3.2-10.23 3.2-20.477.638-15.985-29.424-8.951-30.065-30.055.641-24.952 17.27-19.196 17.27-43.498 0-13.882-6.397-18.554-12.154-18.554-5.762 0-10.235 7.035-10.235 10.238 0 3.192-1.437 8.146 8.957 20.467M365.111 189.594c10.566 103.913 26.371 211.943 47.112 302.658 20.912-18.231 44.701-35.17 101.392-59.818-48.098-48.7-110.871-145.842-148.504-242.84"/>
    <path d="M276.333 699.034c-12.051-3.974-20.88-13.225-26.684-24.025-129.594-31.895-226.01-149.076-226.01-288.374 0-155.221 119.711-282.986 271.652-295.873a2032.769 2032.769 0 003.552-23.975C132.174 78.013 0 217.168 0 386.635c0 161.592 120.176 295.62 275.845 317.461.11-1.761.262-3.466.488-5.062M354.931 67.874a3321.34 3321.34 0 001.659 23.983c146.833 17.82 260.973 143.212 260.973 294.777 0 145.116-104.635 266.237-242.413 291.922-3.664 8.208-8.073 14.383-11.421 19.042-.617.856-1.333 1.855-1.983 2.789a52.655 52.655 0 013.599 3.712c155.675-21.839 275.857-155.87 275.857-317.465 0-165.183-125.576-301.573-286.271-318.76"/>
  </g>
</svg>
