<svg xmlns="http://www.w3.org/2000/svg" fill-rule="evenodd" stroke-linejoin="round" stroke-miterlimit="2" clip-rule="evenodd" viewBox="0 0 141 15">
  <path fill="#ffd980" fill-rule="nonzero" d="M0.642,-0.708c-0.005,0.063 -0.007,0.12 -0.007,0.17c0,0.031 0.001,0.057 0.003,0.076l-0.023,0c-0.016,-0.082 -0.038,-0.14 -0.066,-0.173c-0.027,-0.033 -0.065,-0.05 -0.113,-0.05l-0.023,0l0,0.571c0,0.028 0.003,0.048 0.009,0.061c0.005,0.013 0.015,0.021 0.03,0.025c0.014,0.005 0.037,0.007 0.068,0.008l0,0.02c-0.084,-0.002 -0.147,-0.003 -0.19,-0.003c-0.042,0 -0.103,0.001 -0.183,0.003l0,-0.02c0.031,-0.001 0.054,-0.003 0.068,-0.008c0.015,-0.004 0.025,-0.012 0.03,-0.025c0.006,-0.013 0.009,-0.033 0.009,-0.061l0,-0.571l-0.022,0c-0.032,0 -0.059,0.007 -0.082,0.021c-0.022,0.014 -0.041,0.037 -0.057,0.069c-0.016,0.033 -0.03,0.077 -0.041,0.133l-0.023,0c0.002,-0.019 0.003,-0.045 0.003,-0.076c0,-0.05 -0.002,-0.107 -0.007,-0.17c0.061,0.002 0.164,0.003 0.309,0.003c0.145,0 0.248,-0.001 0.308,-0.003Z" transform="matrix(20.1474 0 .35167 20.1474 -.13706247 14.5991395)"/>
  <path fill="#ffd980" fill-rule="nonzero" d="M0.767,-0.688c-0.023,0.001 -0.039,0.004 -0.049,0.008c-0.01,0.004 -0.017,0.012 -0.02,0.023c-0.004,0.011 -0.006,0.03 -0.006,0.055l0,0.496c0,0.025 0.002,0.044 0.006,0.055c0.003,0.011 0.01,0.019 0.02,0.023c0.01,0.004 0.026,0.007 0.049,0.008l0,0.02c-0.033,-0.002 -0.083,-0.003 -0.152,-0.003c-0.067,0 -0.12,0.001 -0.157,0.003l0,-0.02c0.022,-0.001 0.038,-0.004 0.048,-0.008c0.011,-0.004 0.018,-0.012 0.021,-0.023c0.004,-0.011 0.006,-0.03 0.006,-0.055l0,-0.24l-0.265,0l0,0.24c0,0.025 0.002,0.044 0.006,0.055c0.003,0.011 0.01,0.019 0.02,0.023c0.01,0.004 0.026,0.007 0.049,0.008l0,0.02c-0.036,-0.002 -0.086,-0.003 -0.151,-0.003c-0.071,0 -0.124,0.001 -0.158,0.003l0,-0.02c0.022,-0.001 0.038,-0.004 0.048,-0.008c0.011,-0.004 0.018,-0.012 0.021,-0.023c0.004,-0.011 0.006,-0.03 0.006,-0.055l0,-0.496c0,-0.025 -0.002,-0.044 -0.006,-0.055c-0.003,-0.011 -0.01,-0.019 -0.021,-0.023c-0.01,-0.004 -0.026,-0.007 -0.048,-0.008l0,-0.02c0.034,0.002 0.087,0.003 0.158,0.003c0.065,0 0.115,-0.001 0.151,-0.003l0,0.02c-0.023,0.001 -0.039,0.004 -0.049,0.008c-0.01,0.004 -0.017,0.012 -0.021,0.023c-0.003,0.011 -0.005,0.03 -0.005,0.055l0,0.236l0.265,0l0,-0.236c0,-0.025 -0.002,-0.044 -0.006,-0.055c-0.003,-0.011 -0.01,-0.019 -0.021,-0.023c-0.01,-0.004 -0.026,-0.007 -0.048,-0.008l0,-0.02c0.037,0.002 0.09,0.003 0.157,0.003c0.069,0 0.119,-0.001 0.152,-0.003l0,0.02Z" transform="matrix(20.1474 0 .35167 20.1474 13.3212909 14.5991395)"/>
  <path fill="#ffd980" fill-rule="nonzero" d="M0.582,-0.152c0,0.061 0.002,0.112 0.007,0.152c-0.045,-0.002 -0.122,-0.003 -0.229,-0.003c-0.145,0 -0.254,0.001 -0.326,0.003l0,-0.02c0.022,-0.001 0.038,-0.004 0.049,-0.008c0.01,-0.004 0.017,-0.012 0.021,-0.023c0.003,-0.011 0.005,-0.03 0.005,-0.055l0,-0.496c0,-0.025 -0.002,-0.044 -0.005,-0.055c-0.004,-0.011 -0.011,-0.019 -0.021,-0.023c-0.011,-0.004 -0.027,-0.007 -0.049,-0.008l0,-0.02c0.072,0.002 0.181,0.003 0.326,0.003c0.098,0 0.168,-0.001 0.209,-0.003c-0.005,0.055 -0.007,0.105 -0.007,0.148c0,0.029 0.001,0.052 0.003,0.068l-0.023,0c-0.01,-0.071 -0.028,-0.121 -0.054,-0.15c-0.026,-0.029 -0.063,-0.043 -0.11,-0.043l-0.041,0c-0.021,0 -0.036,0.002 -0.045,0.005c-0.009,0.003 -0.016,0.01 -0.019,0.02c-0.003,0.009 -0.005,0.025 -0.005,0.046l0,0.248l0.032,0c0.035,0 0.062,-0.013 0.081,-0.039c0.018,-0.026 0.031,-0.057 0.038,-0.093l0.023,0c-0.002,0.028 -0.003,0.059 -0.003,0.094l0,0.048c0,0.034 0.002,0.081 0.006,0.142l-0.023,0c-0.014,-0.088 -0.055,-0.132 -0.122,-0.132l-0.032,0l0,0.252c0,0.021 0.002,0.037 0.005,0.047c0.003,0.009 0.01,0.016 0.019,0.019c0.009,0.003 0.024,0.005 0.045,0.005l0.049,0c0.047,0 0.086,-0.016 0.115,-0.048c0.029,-0.033 0.049,-0.088 0.061,-0.165l0.023,0c-0.002,0.022 -0.003,0.05 -0.003,0.084Z" transform="matrix(20.1474 0 .35167 20.1474 29.43910052 14.5991395)"/>
  <path fill="#ffd980" fill-rule="nonzero" d="M0.397,-0.722c0.071,0 0.132,0.014 0.186,0.043c0.052,0.029 0.094,0.07 0.123,0.124c0.029,0.055 0.044,0.12 0.044,0.195c0,0.073 -0.015,0.138 -0.045,0.195c-0.03,0.057 -0.072,0.101 -0.125,0.132c-0.054,0.031 -0.115,0.047 -0.184,0.047c-0.071,0 -0.132,-0.014 -0.185,-0.043c-0.053,-0.029 -0.095,-0.07 -0.124,-0.125c-0.029,-0.054 -0.044,-0.119 -0.044,-0.194c0,-0.073 0.015,-0.138 0.045,-0.195c0.03,-0.057 0.072,-0.101 0.126,-0.132c0.053,-0.031 0.114,-0.047 0.183,-0.047Zm-0.004,0.018c-0.037,0 -0.069,0.015 -0.097,0.044c-0.028,0.03 -0.049,0.072 -0.064,0.125c-0.015,0.053 -0.023,0.114 -0.023,0.183c0,0.069 0.009,0.13 0.026,0.183c0.017,0.053 0.04,0.093 0.069,0.122c0.029,0.029 0.061,0.043 0.096,0.043c0.037,0 0.069,-0.015 0.097,-0.045c0.028,-0.029 0.05,-0.071 0.065,-0.124c0.015,-0.053 0.022,-0.114 0.022,-0.183c0,-0.069 -0.008,-0.13 -0.025,-0.183c-0.017,-0.053 -0.04,-0.093 -0.069,-0.122c-0.029,-0.029 -0.062,-0.043 -0.097,-0.043Z" transform="matrix(20.1474 0 .35167 20.1474 46.90689286 14.5991395)"/>
  <path fill="#ffd980" fill-rule="nonzero" d="M0.671,-0.688c-0.022,0.003 -0.038,0.009 -0.048,0.017c-0.011,0.008 -0.018,0.021 -0.021,0.038c-0.004,0.017 -0.006,0.043 -0.006,0.077l0,0.265c0,0.095 -0.014,0.166 -0.041,0.212c-0.018,0.029 -0.044,0.052 -0.078,0.069c-0.034,0.016 -0.076,0.024 -0.125,0.024c-0.077,0 -0.137,-0.017 -0.18,-0.05c-0.031,-0.025 -0.051,-0.056 -0.062,-0.093c-0.011,-0.038 -0.016,-0.091 -0.016,-0.159l0,-0.314c0,-0.025 -0.002,-0.044 -0.005,-0.055c-0.004,-0.011 -0.011,-0.019 -0.021,-0.023c-0.011,-0.004 -0.027,-0.007 -0.049,-0.008l0,-0.02c0.034,0.002 0.086,0.003 0.156,0.003c0.069,0 0.122,-0.001 0.159,-0.003l0,0.02c-0.024,0.001 -0.041,0.004 -0.052,0.008c-0.011,0.004 -0.019,0.012 -0.023,0.023c-0.004,0.011 -0.006,0.03 -0.006,0.055l0,0.377c0,0.07 0.01,0.122 0.031,0.155c0.02,0.033 0.056,0.049 0.107,0.049c0.067,0 0.114,-0.022 0.141,-0.067c0.027,-0.045 0.041,-0.109 0.041,-0.192l0,-0.264c0,-0.039 -0.002,-0.067 -0.007,-0.086c-0.005,-0.019 -0.014,-0.032 -0.027,-0.04c-0.013,-0.009 -0.034,-0.015 -0.063,-0.018l0,-0.02c0.025,0.002 0.061,0.003 0.108,0.003c0.037,0 0.066,-0.001 0.087,-0.003l0,0.02Z" transform="matrix(20.1474 0 .35167 20.1474 61.6750413 14.5991395)"/>
  <path fill="#ffd980" fill-rule="nonzero" d="M0.642,-0.708c-0.005,0.063 -0.007,0.12 -0.007,0.17c0,0.031 0.001,0.057 0.003,0.076l-0.023,0c-0.016,-0.082 -0.038,-0.14 -0.066,-0.173c-0.027,-0.033 -0.065,-0.05 -0.113,-0.05l-0.023,0l0,0.571c0,0.028 0.003,0.048 0.009,0.061c0.005,0.013 0.015,0.021 0.03,0.025c0.014,0.005 0.037,0.007 0.068,0.008l0,0.02c-0.084,-0.002 -0.147,-0.003 -0.19,-0.003c-0.042,0 -0.103,0.001 -0.183,0.003l0,-0.02c0.031,-0.001 0.054,-0.003 0.068,-0.008c0.015,-0.004 0.025,-0.012 0.03,-0.025c0.006,-0.013 0.009,-0.033 0.009,-0.061l0,-0.571l-0.022,0c-0.032,0 -0.059,0.007 -0.082,0.021c-0.022,0.014 -0.041,0.037 -0.057,0.069c-0.016,0.033 -0.03,0.077 -0.041,0.133l-0.023,0c0.002,-0.019 0.003,-0.045 0.003,-0.076c0,-0.05 -0.002,-0.107 -0.007,-0.17c0.061,0.002 0.164,0.003 0.309,0.003c0.145,0 0.248,-0.001 0.308,-0.003Z" transform="matrix(20.1474 0 .35167 20.1474 75.55648997 14.5991395)"/>
  <path fill="#ffd980" fill-rule="nonzero" d="M0.268,-0.286l0,0.174c0,0.027 0.003,0.046 0.009,0.059c0.005,0.012 0.015,0.02 0.029,0.024c0.015,0.004 0.038,0.006 0.069,0.007l0,0.022c-0.082,-0.002 -0.143,-0.003 -0.183,-0.003c-0.033,0 -0.075,0.001 -0.126,0.002l-0.032,0.001l0,-0.02c0.022,-0.001 0.038,-0.004 0.048,-0.008c0.011,-0.004 0.018,-0.012 0.021,-0.023c0.004,-0.011 0.006,-0.03 0.006,-0.055l0,-0.496c0,-0.025 -0.002,-0.044 -0.006,-0.055c-0.003,-0.011 -0.01,-0.019 -0.021,-0.023c-0.01,-0.004 -0.026,-0.007 -0.048,-0.008l0,-0.02c0.034,0.002 0.085,0.003 0.152,0.003l0.111,-0.001c0.013,-0.001 0.029,-0.001 0.046,-0.001c0.09,0 0.159,0.018 0.206,0.054c0.047,0.035 0.071,0.083 0.071,0.143c0,0.037 -0.009,0.072 -0.028,0.105c-0.019,0.034 -0.05,0.062 -0.095,0.085c-0.044,0.023 -0.103,0.034 -0.176,0.034l-0.053,0Zm0.062,-0.402c-0.018,0 -0.031,0.002 -0.04,0.007c-0.008,0.005 -0.014,0.013 -0.017,0.025c-0.003,0.012 -0.005,0.03 -0.005,0.054l0,0.296l0.043,0c0.054,0 0.091,-0.017 0.112,-0.052c0.021,-0.035 0.031,-0.082 0.031,-0.141c0,-0.065 -0.01,-0.112 -0.029,-0.143c-0.019,-0.031 -0.05,-0.046 -0.095,-0.046Z" transform="matrix(20.1474 0 .35167 20.1474 88.8740259 14.5991395)"/>
  <path fill="#ffd980" fill-rule="nonzero" d="M0.397,-0.722c0.071,0 0.132,0.014 0.186,0.043c0.052,0.029 0.094,0.07 0.123,0.124c0.029,0.055 0.044,0.12 0.044,0.195c0,0.073 -0.015,0.138 -0.045,0.195c-0.03,0.057 -0.072,0.101 -0.125,0.132c-0.054,0.031 -0.115,0.047 -0.184,0.047c-0.071,0 -0.132,-0.014 -0.185,-0.043c-0.053,-0.029 -0.095,-0.07 -0.124,-0.125c-0.029,-0.054 -0.044,-0.119 -0.044,-0.194c0,-0.073 0.015,-0.138 0.045,-0.195c0.03,-0.057 0.072,-0.101 0.126,-0.132c0.053,-0.031 0.114,-0.047 0.183,-0.047Zm-0.004,0.018c-0.037,0 -0.069,0.015 -0.097,0.044c-0.028,0.03 -0.049,0.072 -0.064,0.125c-0.015,0.053 -0.023,0.114 -0.023,0.183c0,0.069 0.009,0.13 0.026,0.183c0.017,0.053 0.04,0.093 0.069,0.122c0.029,0.029 0.061,0.043 0.096,0.043c0.037,0 0.069,-0.015 0.097,-0.045c0.028,-0.029 0.05,-0.071 0.065,-0.124c0.015,-0.053 0.022,-0.114 0.022,-0.183c0,-0.069 -0.008,-0.13 -0.025,-0.183c-0.017,-0.053 -0.04,-0.093 -0.069,-0.122c-0.029,-0.029 -0.062,-0.043 -0.097,-0.043Z" transform="matrix(20.1474 0 .35167 20.1474 101.48618862 14.5991395)"/>
  <g>
    <path fill="#ffd980" fill-rule="nonzero" d="M0.284,-0.721c0.035,0 0.062,0.003 0.083,0.01c0.021,0.007 0.042,0.016 0.063,0.029c0.007,0.004 0.014,0.007 0.019,0.01c0.006,0.003 0.011,0.004 0.015,0.004c0.006,0 0.011,-0.004 0.014,-0.011c0.003,-0.007 0.006,-0.018 0.008,-0.033l0.023,0c-0.003,0.045 -0.005,0.121 -0.005,0.228l-0.023,0c-0.003,-0.036 -0.011,-0.07 -0.025,-0.103c-0.013,-0.033 -0.033,-0.059 -0.058,-0.08c-0.025,-0.02 -0.054,-0.03 -0.087,-0.03c-0.033,0 -0.059,0.009 -0.08,0.027c-0.02,0.019 -0.03,0.044 -0.03,0.075c0,0.023 0.005,0.044 0.015,0.061c0.01,0.017 0.024,0.033 0.042,0.048c0.018,0.014 0.046,0.033 0.083,0.058l0.032,0.022c0.039,0.026 0.07,0.049 0.093,0.068c0.023,0.019 0.041,0.042 0.055,0.068c0.015,0.025 0.022,0.055 0.022,0.089c0,0.043 -0.011,0.079 -0.033,0.108c-0.022,0.029 -0.052,0.05 -0.09,0.065c-0.037,0.015 -0.079,0.022 -0.125,0.022c-0.037,0 -0.068,-0.003 -0.093,-0.01c-0.025,-0.007 -0.047,-0.016 -0.068,-0.027c-0.015,-0.009 -0.026,-0.014 -0.034,-0.014c-0.006,0 -0.011,0.004 -0.014,0.011c-0.003,0.007 -0.006,0.018 -0.008,0.033l-0.023,0c0.003,-0.042 0.004,-0.132 0.004,-0.27l0.023,0c0.005,0.075 0.021,0.135 0.05,0.182c0.029,0.046 0.073,0.069 0.132,0.069c0.036,0 0.066,-0.01 0.089,-0.029c0.023,-0.019 0.035,-0.047 0.035,-0.083c0,-0.037 -0.012,-0.069 -0.036,-0.096c-0.024,-0.027 -0.062,-0.057 -0.114,-0.09c-0.04,-0.026 -0.072,-0.049 -0.096,-0.068c-0.024,-0.019 -0.044,-0.042 -0.059,-0.068c-0.015,-0.027 -0.023,-0.057 -0.023,-0.092c0,-0.04 0.01,-0.074 0.03,-0.101c0.021,-0.028 0.048,-0.049 0.082,-0.062c0.034,-0.013 0.071,-0.02 0.112,-0.02Z" transform="matrix(20.1474 0 .35167 20.1474 116.69768693 14.5991395)"/>
  </g>
  <g>
    <path fill="#ffd980" fill-rule="nonzero" d="M0.642,-0.708c-0.005,0.063 -0.007,0.12 -0.007,0.17c0,0.031 0.001,0.057 0.003,0.076l-0.023,0c-0.016,-0.082 -0.038,-0.14 -0.066,-0.173c-0.027,-0.033 -0.065,-0.05 -0.113,-0.05l-0.023,0l0,0.571c0,0.028 0.003,0.048 0.009,0.061c0.005,0.013 0.015,0.021 0.03,0.025c0.014,0.005 0.037,0.007 0.068,0.008l0,0.02c-0.084,-0.002 -0.147,-0.003 -0.19,-0.003c-0.042,0 -0.103,0.001 -0.183,0.003l0,-0.02c0.031,-0.001 0.054,-0.003 0.068,-0.008c0.015,-0.004 0.025,-0.012 0.03,-0.025c0.006,-0.013 0.009,-0.033 0.009,-0.061l0,-0.571l-0.022,0c-0.032,0 -0.059,0.007 -0.082,0.021c-0.022,0.014 -0.041,0.037 -0.057,0.069c-0.016,0.033 -0.03,0.077 -0.041,0.133l-0.023,0c0.002,-0.019 0.003,-0.045 0.003,-0.076c0,-0.05 -0.002,-0.107 -0.007,-0.17c0.061,0.002 0.164,0.003 0.309,0.003c0.145,0 0.248,-0.001 0.308,-0.003Z" transform="matrix(20.1474 0 .35167 20.1474 127.7785404 14.5991395)"/>
  </g>
</svg>
