<svg xmlns="http://www.w3.org/2000/svg" fill-rule="evenodd" stroke-linejoin="round" stroke-miterlimit="2" clip-rule="evenodd" viewBox="0 0 512 512">
  <g transform="matrix(4.87166 0 0 5.05638 -5028 -208)">
    <path fill="none" d="M1032.1 41.1h105.1v101.3h-105.1z"/>
    <clipPath id="a">
      <path d="M1032.1 41.1h105.1v101.3h-105.1z"/>
    </clipPath>
    <g clip-path="url(#a)">
      <circle cx="502.6" cy="505.3" r="494.7" fill="#ffd770" transform="matrix(.09761 0 0 .0943 1035.5 44.1)"/>
      <path fill="#191919" d="M1084.5 41.1c29 0 52.4 22.7 52.4 50.6 0 28-23.4 50.7-52.4 50.7-28.9 0-52.4-22.7-52.4-50.7 0-27.9 23.5-50.6 52.4-50.6zm-2.5 97.2v-20.6l-17.2 9.7v7c5.3 2.3 11 3.6 17.2 4zm5.3 0c6.2-.3 11.9-1.7 17.3-4.1v-6.8l-17.3-9.7v20.6zm22.5-6.8c13.8-8.2 23-23 23-39.8a47.5 47.5 0 00-48.3-46.6 47.5 47.5 0 00-48.3 46.6 46 46 0 0023.3 40v-29.3h-5.5a2.6 2.6 0 01-2.6-2.6c0-1.4 1.2-2.5 2.6-2.5h5.5v-11h-5.5a2.6 2.6 0 01-2.6-2.5c0-1.4 1.2-2.6 2.6-2.6h5.7l22.3-14.8v-1.9a2.4 2.4 0 01.8-1.7 2.7 2.7 0 011.9-.8c1.4 0 2.6 1.2 2.6 2.5v2l22.3 14.7h5.7c1.5 0 2.6 1.2 2.6 2.6 0 1.4-1.1 2.5-2.6 2.5h-5.5v11h5.5c1.5 0 2.6 1.1 2.6 2.5s-1.1 2.6-2.6 2.6h-5.5v29zm-5.2-26.5l-8.9 5-5.9 3.3 14.8 8.3V105zm-39.8 16.6l14.6-8.3-14.6-8.2v16.5zm5.6-19.2l11.6 6.5v-6.5h-11.6zm28.4 0h-11.5v6.4l5.8-3.3 5.7-3.1zm-54.4-5c1.5 0 2.7 1.1 2.7 2.5 0 1.5-1.2 2.6-2.7 2.6a2.6 2.6 0 01-2.6-2.6c0-1.4 1.2-2.5 2.6-2.5zm60.2-11.1h-17.3v11h17.3v-11zm-39.8 0v11h17.2v-11h-17.2zm60-5.2c1.5 0 2.7 1.1 2.7 2.5s-1.2 2.6-2.6 2.6a2.6 2.6 0 01-2.7-2.6c0-1.4 1.2-2.5 2.7-2.5zm-37.5-8.5v8.6h13l-13-8.6zm-18.3 8.6h13v-8.6l-13 8.6zm50.7-9.7l2.7 7.6c.1.4.6.7 1 .5.5-.1.8-.6.6-1l-2.6-7.6a.9.9 0 00-1.1-.5c-.5.1-.7.6-.6 1zm-16.8-5c1.1 0 2 .8 2 1.8s-.9 2-2 2c-1 0-2-1-2-2s1-1.9 2-1.9zm16-2.6c1.4 0 2.6 1.1 2.6 2.5s-1.2 2.6-2.6 2.6a2.6 2.6 0 01-2.7-2.6c0-1.4 1.2-2.5 2.7-2.5zm-11.3 4.7l6.1-.7c.5 0 .8-.5.8-1 0-.4-.5-.7-1-.7l-6.1.8c-.5 0-.8.4-.8.9s.5.8 1 .7zm-16-13.2l7.8 10c.3.3.9.4 1.3 0 .3-.2.4-.7.1-1.1l-7.8-10a.9.9 0 00-1.2 0c-.4.2-.5.7-.2 1.1zm-29.3 4.7c1.1 0 2 .8 2 1.9 0 1-.9 1.9-2 1.9-1 0-2-.9-2-2 0-1 1-1.8 2-1.8zm26.8-11.8c1.5 0 2.7 1.1 2.7 2.6 0 1.4-1.2 2.5-2.7 2.5a2.6 2.6 0 01-2.6-2.5c0-1.5 1.1-2.6 2.6-2.6z"/>
    </g>
  </g>
</svg>
