<svg version="1" xmlns="http://www.w3.org/2000/svg" width="170.667" height="170.667" viewBox="0 0 128.000000 128.000000"><path d="M61.2 11.2c-.7.7-1.2 2.1-1.2 3.3 0 1.6-3.8 4.7-15.6 12.8C30 37.2 28.5 38 24.1 38c-5.9 0-8.9 2.6-7.1 5.9.9 1.7 2 2.1 6 2.1h5v16h-4.4c-4.2 0-7.6 1.8-7.6 4s3.4 4 7.6 4H28v46.8l3.4 2.1c1.8 1.2 3.6 2.1 3.9 2.1.3 0 .7-3.2.9-7.2l.3-7.2L48 99.9l11.5-6.7.3 17.4.2 17.4h8l.2-17.5.3-17.4 12 6.9 12 7 .5 7 .5 6.9 3.3-2 3.2-2.1V70h4.8c5.1 0 7.2-1.2 7.2-4.2 0-2.3-3-3.8-7.9-3.8H100V46h4.8c5.1 0 7.2-1.2 7.2-4.2 0-2.4-3-3.8-8.2-3.8-3.8 0-6-1.2-20-10.8-9.5-6.5-15.7-11.4-15.8-12.4-.1-4.5-3.9-6.5-6.8-3.6zm-1.5 26.5c-.3.2-4.1.3-8.6.1l-8.1-.3 8.2-5.6 8.3-5.7.3 5.5c.2 3.1.1 5.7-.1 6zM77 31.8c3.6 2.5 6.9 4.9 7.4 5.4.6.4-2.9.8-7.7.8H68v-6.1c0-4.5.3-5.8 1.3-5.3.6.4 4.1 2.7 7.7 5.2zM60 54v8H36V46h24v8zm33 0v8H68V46h25v8zM60 74.6v4.5l-5.7-3.2c-10.7-6-10.7-5.9-2-5.9H60v4.6zm21.5-3.3c-1.1.8-4.6 2.8-7.7 4.6L68 79.1V70h7.7c6.8 0 7.5.2 5.8 1.3zM56 86c0 .3-2.6 2-5.7 3.7-3.2 1.8-7.7 4.4-10 5.8L36 98.1v-24l10 5.7c5.5 3.1 10 5.9 10 6.2zm36.7 11.6C92.1 98.2 73 86.9 73 86c0-.5 4.4-3.4 9.8-6.4l9.7-5.6.3 11.7c.1 6.3.1 11.7-.1 11.9z"/></svg>